<svg xmlns="http://www.w3.org/2000/svg" style="display: none;">
<symbol id="Button" viewBox="0 0 24 24"><!-- Wall plate -->
  <rect
    x="3"
    y="3"
    width="18"
    height="18"
    rx="3"
    ry="3"
    fill="#e5e7eb"
    stroke="#000"
    stroke-width="2"
  />

  <!-- Push button -->
  <circle
    cx="12"
    cy="12"
    r="4.5"
    fill="#ffffff"
    stroke="#000"
    stroke-width="2"
  /></symbol>
<symbol id="Controller128" viewBox="0 0 24 24"><!-- Inputs (top) -->
  <g stroke="#000" stroke-width="1.5">
    <line x1="5" y1="2" x2="5" y2="5" />
    <line x1="8" y1="2" x2="8" y2="5" />
    <line x1="12" y1="2" x2="12" y2="5" />
    <line x1="16" y1="2" x2="16" y2="5" />
    <line x1="19" y1="2" x2="19" y2="5" />
  </g>

  <!-- Outputs (bottom) -->
  <g stroke="#000" stroke-width="1.5">
    <line x1="5" y1="19" x2="5" y2="22" />
    <line x1="8" y1="19" x2="8" y2="22" />
    <line x1="12" y1="19" x2="12" y2="22" />
    <line x1="16" y1="19" x2="16" y2="22" />
    <line x1="19" y1="19" x2="19" y2="22" />
  </g>

  <!-- Controller case -->
  <rect
    x="3"
    y="5"
    width="18"
    height="14"
    rx="2"
    fill="#d1d5db"
    stroke="#000"
    stroke-width="2"
  />

  <!-- Processing icon (gear) -->
  <circle
    cx="12"
    cy="12"
    r="3"
    fill="#f3f4f6"
    stroke="#000"
    stroke-width="1.5"
  />

  <!-- Gear teeth -->
  <g stroke="#000" stroke-width="1.2">
    <line x1="12" y1="7" x2="12" y2="9" />
    <line x1="12" y1="15" x2="12" y2="17" />
    <line x1="7" y1="12" x2="9" y2="12" />
    <line x1="15" y1="12" x2="17" y2="12" />
    <line x1="9.5" y1="9.5" x2="10.8" y2="10.8" />
    <line x1="13.2" y1="13.2" x2="14.5" y2="14.5" />
    <line x1="14.5" y1="9.5" x2="13.2" y2="10.8" />
    <line x1="10.8" y1="13.2" x2="9.5" y2="14.5" />
  </g></symbol>
<symbol id="Controller32" viewBox="0 0 24 24"><!-- Inputs (top) -->
  <g stroke="#000" stroke-width="1.5">
    <line x1="5" y1="2" x2="5" y2="5" />
    <line x1="8" y1="2" x2="8" y2="5" />
    <line x1="12" y1="2" x2="12" y2="5" />
    <line x1="16" y1="2" x2="16" y2="5" />
    <line x1="19" y1="2" x2="19" y2="5" />
  </g>

  <!-- Outputs (bottom) -->
  <g stroke="#000" stroke-width="1.5">
    <line x1="5" y1="19" x2="5" y2="22" />
    <line x1="8" y1="19" x2="8" y2="22" />
    <line x1="12" y1="19" x2="12" y2="22" />
    <line x1="16" y1="19" x2="16" y2="22" />
    <line x1="19" y1="19" x2="19" y2="22" />
  </g>

  <!-- Controller case -->
  <rect
    x="3"
    y="5"
    width="18"
    height="14"
    rx="2"
    fill="#d1d5db"
    stroke="#000"
    stroke-width="2"
  />

  <!-- Processing icon (gear) -->
  <circle
    cx="12"
    cy="12"
    r="3"
    fill="#f3f4f6"
    stroke="#000"
    stroke-width="1.5"
  />

  <!-- Gear teeth -->
  <g stroke="#000" stroke-width="1.2">
    <line x1="12" y1="7" x2="12" y2="9" />
    <line x1="12" y1="15" x2="12" y2="17" />
    <line x1="7" y1="12" x2="9" y2="12" />
    <line x1="15" y1="12" x2="17" y2="12" />
    <line x1="9.5" y1="9.5" x2="10.8" y2="10.8" />
    <line x1="13.2" y1="13.2" x2="14.5" y2="14.5" />
    <line x1="14.5" y1="9.5" x2="13.2" y2="10.8" />
    <line x1="10.8" y1="13.2" x2="9.5" y2="14.5" />
  </g></symbol>
<symbol id="Controller64" viewBox="0 0 24 24"><!-- Inputs (top) -->
  <g stroke="#000" stroke-width="1.5">
    <line x1="5" y1="2" x2="5" y2="5" />
    <line x1="8" y1="2" x2="8" y2="5" />
    <line x1="12" y1="2" x2="12" y2="5" />
    <line x1="16" y1="2" x2="16" y2="5" />
    <line x1="19" y1="2" x2="19" y2="5" />
  </g>

  <!-- Outputs (bottom) -->
  <g stroke="#000" stroke-width="1.5">
    <line x1="5" y1="19" x2="5" y2="22" />
    <line x1="8" y1="19" x2="8" y2="22" />
    <line x1="12" y1="19" x2="12" y2="22" />
    <line x1="16" y1="19" x2="16" y2="22" />
    <line x1="19" y1="19" x2="19" y2="22" />
  </g>

  <!-- Controller case -->
  <rect
    x="3"
    y="5"
    width="18"
    height="14"
    rx="2"
    fill="#d1d5db"
    stroke="#000"
    stroke-width="2"
  />

  <!-- Processing icon (gear) -->
  <circle
    cx="12"
    cy="12"
    r="3"
    fill="#f3f4f6"
    stroke="#000"
    stroke-width="1.5"
  />

  <!-- Gear teeth -->
  <g stroke="#000" stroke-width="1.2">
    <line x1="12" y1="7" x2="12" y2="9" />
    <line x1="12" y1="15" x2="12" y2="17" />
    <line x1="7" y1="12" x2="9" y2="12" />
    <line x1="15" y1="12" x2="17" y2="12" />
    <line x1="9.5" y1="9.5" x2="10.8" y2="10.8" />
    <line x1="13.2" y1="13.2" x2="14.5" y2="14.5" />
    <line x1="14.5" y1="9.5" x2="13.2" y2="10.8" />
    <line x1="10.8" y1="13.2" x2="9.5" y2="14.5" />
  </g></symbol>
<symbol id="Door" viewBox="0 0 24 24"><!-- Door frame -->
  <rect
    x="6"
    y="2"
    width="12"
    height="20"
    rx="1"
    fill="#e5e7eb"
    stroke="#000"
    stroke-width="2"
  />

  <!-- Door panel -->
  <rect
    x="7.5"
    y="3.5"
    width="9"
    height="17"
    rx="0.5"
    fill="#d1d5db"
    stroke="#000"
    stroke-width="1.5"
  />

  <!-- Door handle -->
  <circle
    cx="15"
    cy="12"
    r="0.8"
    fill="#9ca3af"
    stroke="#000"
    stroke-width="1"
  />

  <!-- Hinges -->
  <g stroke="#000" stroke-width="1">
    <line x1="7.5" y1="6" x2="7.5" y2="7.5" />
    <line x1="7.5" y1="10.5" x2="7.5" y2="12" />
    <line x1="7.5" y1="15" x2="7.5" y2="16.5" />
  </g></symbol>
<symbol id="Gate" viewBox="0 0 24 24"><!-- Ground rail -->
  <line
    x1="2"
    y1="20"
    x2="22"
    y2="20"
    stroke="#000"
    stroke-width="2"
  />

  <!-- Gate frame -->
  <rect
    x="4"
    y="7"
    width="16"
    height="10"
    rx="1"
    fill="#d1d5db"
    stroke="#000"
    stroke-width="2"
  />

  <!-- Vertical bars -->
  <g stroke="#000" stroke-width="1.2">
    <line x1="7" y1="7" x2="7" y2="17" />
    <line x1="10" y1="7" x2="10" y2="17" />
    <line x1="13" y1="7" x2="13" y2="17" />
    <line x1="16" y1="7" x2="16" y2="17" />
  </g>

  <!-- Gate wheels -->
  <circle
    cx="7"
    cy="19"
    r="1"
    fill="#9ca3af"
    stroke="#000"
    stroke-width="1"
  />
  <circle
    cx="17"
    cy="19"
    r="1"
    fill="#9ca3af"
    stroke="#000"
    stroke-width="1"
  />

  <!-- Direction arrow (slide) -->
  <path
    d="M9 4h6l-1.5-1.5M15 4l-1.5 1.5"
    fill="none"
    stroke="#000"
    stroke-width="1.5"
    stroke-linecap="round"
    stroke-linejoin="round"
  /></symbol>
<symbol id="Light" viewBox="0 0 24 24"><!-- Bulb body -->
  <path
    d="M12 2
       a7 7 0 0 0-4 12
       c.7.7 1 1.5 1 2
       h6
       c0-.5.3-1.3 1-2
       a7 7 0 0 0-4-12z"
    fill="#facc15"
    stroke="#000"
    stroke-width="2"
    stroke-linejoin="round"
  />

  <!-- Bulb base -->
  <rect
    x="9"
    y="18"
    width="6"
    height="2"
    fill="#facc15"
    stroke="#000"
    stroke-width="2"
  />

  <rect
    x="10"
    y="21"
    width="4"
    height="1"
    fill="#facc15"
    stroke="#000"
    stroke-width="2"
  /></symbol>
<symbol id="Shade" viewBox="0 0 24 24"><!-- Window frame -->
  <rect
    x="4"
    y="3"
    width="16"
    height="18"
    rx="2"
    fill="#e5e7eb"
    stroke="#000"
    stroke-width="2"
  />

  <!-- Shade roll -->
  <rect
    x="5"
    y="5"
    width="14"
    height="2"
    fill="#9ca3af"
    stroke="#000"
    stroke-width="1.5"
  />

  <!-- Shade fabric -->
  <rect
    x="6"
    y="7"
    width="12"
    height="9"
    fill="#f3f4f6"
    stroke="#000"
    stroke-width="1.5"
  />

  <!-- Bottom bar -->
  <rect
    x="6"
    y="16"
    width="12"
    height="1.5"
    fill="#9ca3af"
    stroke="#000"
    stroke-width="1.2"
  />

  <!-- Pull cord -->
  <line
    x1="17.5"
    y1="7"
    x2="17.5"
    y2="19"
    stroke="#000"
    stroke-width="1"
  />

  <circle
    cx="17.5"
    cy="20.5"
    r="1"
    fill="#9ca3af"
    stroke="#000"
    stroke-width="1"
  /></symbol>
</svg>